<svg xmlns="http://www.w3.org/2000/svg" xmlns:xlink="http://www.w3.org/1999/xlink" id="Layer_1" x="0px" y="0px" viewBox="0 0 512 410" style="enable-background:new 0 0 512 410;" xml:space="preserve">
<style type="text/css">
	.st0{fill:#D7B56D;}
</style>
<path class="st0" d="M439,11.7c-3.8-3-8.9-4.1-13.6-3L189.2,65.3C182,67.1,177,73.5,177,80.9v186.6c-32.8-21.6-76.8-12.5-98.4,20.3  C71,299.4,67,312.9,67,326.8c0,39.1,31.8,71.2,70.9,71.2c38.2,0,69.4-31,70.9-68h0.3V182.2l204-49.1v72.3  c-11.5-7.7-25.1-11.7-38.9-11.7c-39.2,0-70.9,31.8-70.9,71s31.8,70.9,71,70.9c39.1,0,70.9-31.7,70.9-70.9c0-0.9,0-1.7-0.1-2.7l0,0  V24.3C445,19.4,442.8,14.8,439,11.7z M137.9,365.7c-21.5,0-38.9-17.4-38.9-39c0-21.5,17.4-38.9,39-38.9c21.5,0,38.9,17.4,38.9,38.9  C176.8,348.3,159.4,365.7,137.9,365.7z M209,149.3V93.5l204-48.9v55.6L209,149.3z M374.1,303.6c-21.5,0-38.9-17.4-38.9-39  s17.4-38.9,39-38.9c21.5,0,38.9,17.4,38.9,38.9S395.6,303.6,374.1,303.6z"></path>
</svg>